<?xml version="1.0" encoding="utf-8"?>
<!-- Generator: Adobe Illustrator 23.0.1, SVG Export Plug-In . SVG Version: 6.00 Build 0)  -->
<svg version="1.1" id="Layer_1" xmlns="http://www.w3.org/2000/svg" xmlns:xlink="http://www.w3.org/1999/xlink" x="0px" y="0px"
	 viewBox="0 0 300 150" style="enable-background:new 0 0 300 150;" xml:space="preserve">
<style type="text/css">
	.st0{fill-rule:evenodd;clip-rule:evenodd;fill:#003770;}
</style>
<g>
	<path class="st0" d="M92.4,91.1c-6.3,12.5-13.4,21.7-21.5,27.5c-9.1,6.5-20.7,9.7-34.7,9.7c-16.1,0-26.4-3.6-31-10.8
		c-5-8.2-4.1-22.3,2.7-42.5c6.9-20.2,15.6-34.3,26.2-42.5c9.5-7.2,22.2-10.8,38.3-10.8c14.4,0,23.9,3.3,28.7,10
		c4.1,5.9,4.6,15.1,1.6,27.6L62,62.7c2.6-8,3.9-13,4.2-15.1c0.2-2.1-0.3-3.1-1.5-3.1c-1.4,0-2.8,1.4-4.3,4.3
		c-1.7,3.7-4.9,12.4-9.6,26.1c-4.6,13.7-7.4,22.4-8.2,26.1c-0.5,2.9,0,4.3,1.4,4.3c1.2,0,2.4-0.9,3.5-2.8c1.1-1.9,3.4-7,6.9-15.5
		L92.4,91.1L92.4,91.1z M176.7,126.7h-33.5l-2.9-19c-1.6-10.8-2.4-19.5-2.4-26c-1.4,5.6-4,13.8-7.7,24.7l-6.9,20.4h-38l35.1-103.3
		H156l2,12.7c2,12.6,3,22,3.1,28.2c1.4-6.4,4.1-15.4,8-27l4.7-13.9h38L176.7,126.7L176.7,126.7z M290.2,46.2H271l-27.3,80.5h-42.2
		l27.3-80.5h-19.2l7.8-22.9H298L290.2,46.2L290.2,46.2z"/>
</g>
</svg>
